<svg width="112" height="112" viewBox="0 0 112 112" fill="none" xmlns="http://www.w3.org/2000/svg">
<path d="M34.6839 107.665C29.6143 107.665 24.4794 105.78 20.3128 102.334C12.522 95.8917 0.678521 81.1352 8.90748 54.7006C10.3456 50.0785 12.0161 45.8712 13.8826 42.0375C9.73788 40.6646 6.51071 40.1055 5.19126 40.0472L5.05811 30.8613C6.5446 30.8274 11.8127 31.5344 18.468 33.9055C31.6286 13.6756 50.8925 6.69461 66.3941 4.6692C81.707 2.66683 100.518 9.52656 105.639 29.3041C108.762 41.3741 106.195 54.1985 98.7677 63.6075C92.8 71.1683 81.2712 80.0874 59.7606 79.6775L56.514 79.5756C56.577 83.2116 56.1121 86.8295 55.1098 90.3309C52.2095 100.446 45.7454 106.558 36.9088 107.542C36.1704 107.623 35.4271 107.665 34.6839 107.665ZM22.3586 45.5814C20.5525 49.2308 18.9861 53.1821 17.6643 57.4367C11.3624 77.6763 18.8021 89.169 26.1523 95.2465C29.026 97.6236 32.5752 98.7806 35.8968 98.4071C37.7755 98.1985 43.4915 97.563 46.2926 87.7937C48.3141 80.746 47.4014 73.0045 43.7263 65.9932C38.434 55.8976 30.0283 49.4988 22.3586 45.5814ZM55.214 70.3411L59.993 70.4903C74.1655 70.7923 84.7647 66.5317 91.5725 57.9073C97.228 50.7419 99.1672 40.912 96.7583 31.6121C93.0348 17.2292 79.0172 12.2954 67.5804 13.7824C49.8539 16.0989 36.2769 24.0889 27.0093 37.6095C35.9428 42.2291 45.5735 49.7547 51.8464 61.7192C53.3111 64.5123 54.4368 67.4049 55.214 70.3411Z" fill="url(#paint0_linear_3_777)"/>
<defs>
<linearGradient id="paint0_linear_3_777" x1="104.904" y1="14.4438" x2="0.398451" y2="23.266" gradientUnits="userSpaceOnUse">
<stop offset="0.0255442" stop-color="#AFFBCE"/>
<stop offset="0.48516" stop-color="#7950EC"/>
</linearGradient>
</defs>
</svg>
