<svg width="904" height="154" viewBox="0 0 904 154" fill="none" xmlns="http://www.w3.org/2000/svg">
<path d="M209.415 39.2059L210.575 49.3528C216.373 39.7857 227.1 37.7563 234.058 37.7563C260.44 37.9013 272.326 55.7308 272.326 73.7053C272.326 92.2596 259.715 109.654 234.058 109.654C225.94 109.654 215.358 105.451 211.3 98.0578V139.66H196.369V39.2059H209.415ZM234.058 50.6574C219.707 50.6574 210.43 59.3547 210.43 73.2704C210.285 87.4761 218.982 96.7532 234.058 96.7532C249.568 96.7532 257.395 85.1568 257.395 73.7053C257.395 62.1089 249.568 50.6574 234.058 50.6574ZM290.61 54.2813C297.133 42.9747 309.599 37.6114 322.21 37.6114C340.039 37.6114 358.449 47.4684 358.449 66.8924V95.1587L359.029 108.35H345.113L343.808 97.7679C339.025 106.03 329.023 110.379 316.122 110.234C301.771 110.089 287.566 103.711 287.566 87.766C287.566 71.386 301.916 66.4575 316.122 66.4575H343.373C342.649 56.6005 333.082 50.6574 322.21 50.6574C314.527 50.6574 305.54 53.7014 301.336 60.0795L290.61 54.2813ZM343.518 78.1989H316.267C309.599 78.1989 302.206 80.8081 302.351 87.766C302.496 95.7385 312.788 97.3331 318.731 97.1881C329.168 96.8982 343.518 93.9991 343.518 80.5182V78.1989ZM386.81 139.08L405.074 105.741L368.256 39.7857V39.3508H385.215L407.394 80.0834L413.192 92.8394L418.555 80.8081L440.878 39.3508H457.258V40.2206L403.335 139.66H386.81V139.08ZM521.444 60.5144C520.139 52.1069 506.513 50.3675 500.57 50.3675C491.872 50.3675 482.161 51.6721 482.161 59.2098C482.161 75.8796 540.578 56.0207 536.664 90.0853C535.07 103.856 517.675 109.654 500.86 109.654C482.305 109.654 466.07 102.696 465.636 85.4467H479.406C479.841 94.434 489.843 97.1881 500.86 97.1881C510.717 97.1881 520.574 95.0138 521.734 88.3458C522.749 81.6779 512.457 80.5182 501.585 79.6485C485.784 78.6338 467.23 76.7494 467.23 59.3547C467.23 42.8298 487.379 38.0462 500.425 37.7563C515.646 37.7563 534.635 42.6848 535.795 60.5144H521.444ZM626.978 39.2059V139.66H612.047V98.0578C607.989 105.451 597.407 109.654 589.289 109.654C563.632 109.654 551.021 92.2596 551.021 73.7053C551.021 55.7308 562.907 37.9013 589.289 37.7563C596.247 37.7563 606.974 39.7857 612.772 49.3528L613.932 39.2059H626.978ZM589.289 50.6574C573.779 50.6574 565.951 62.1089 565.951 73.7053C565.951 85.1568 573.779 96.7532 589.289 96.7532C604.365 96.7532 613.062 87.4761 612.917 73.2704C612.917 59.3547 603.64 50.6574 589.289 50.6574ZM720.232 108.35H706.897L705.592 98.2028C701.533 105.596 693.271 109.509 684.284 109.654C667.324 109.944 649.059 101.537 649.059 74.5751V39.3508H664.135V74.72C663.99 91.2449 673.702 97.3331 683.704 97.478C694.285 97.478 705.302 90.0853 705.302 73.9952V39.3508H720.232V108.35ZM742.465 54.2813C748.988 42.9747 761.454 37.6114 774.065 37.6114C791.895 37.6114 810.304 47.4684 810.304 66.8924V95.1587L810.884 108.35H796.968L795.664 97.7679C790.88 106.03 780.878 110.379 767.977 110.234C753.627 110.089 739.421 103.711 739.421 87.766C739.421 71.386 753.772 66.4575 767.977 66.4575H795.229C794.504 56.6005 784.937 50.6574 774.065 50.6574C766.383 50.6574 757.396 53.7014 753.192 60.0795L742.465 54.2813ZM795.374 78.1989H768.122C761.454 78.1989 754.062 80.8081 754.206 87.766C754.351 95.7385 764.643 97.3331 770.586 97.1881C781.023 96.8982 795.374 93.9991 795.374 80.5182V78.1989ZM890.954 108.35L889.794 98.2028C883.996 107.77 873.269 109.799 866.311 109.799C839.93 109.654 828.043 91.8248 828.043 73.8503C828.043 55.296 840.654 37.9013 866.311 37.9013C874.574 37.9013 885.156 42.105 889.359 49.4977V6.73584H904V108.35H890.954ZM866.311 96.8982C880.662 96.8982 889.939 88.2009 889.939 74.2851C890.084 60.0795 881.387 50.8023 866.311 50.8023C850.801 50.8023 842.974 62.3988 842.974 73.8503C842.974 85.4467 850.801 96.8982 866.311 96.8982Z" fill="white"/>
<path d="M43.0799 152.285C35.7081 152.285 28.2412 149.544 22.1824 144.532C10.8536 135.162 -6.36852 113.7 5.59752 75.2524C7.68869 68.5299 10.1178 62.4107 12.8321 56.8349C6.80504 54.8381 2.11229 54.0249 0.193622 53.9402L0 40.5799C2.16157 40.5305 9.8221 41.5589 19.4999 45.0075C38.6371 15.5845 66.6494 5.43115 89.191 2.48533C111.458 -0.426971 138.812 9.55002 146.258 38.315C150.799 55.87 147.067 74.5222 136.267 88.207C127.589 99.2036 110.824 112.176 79.5449 111.58L74.824 111.431C74.9155 116.72 74.2396 121.982 72.7821 127.074C68.5646 141.786 59.1649 150.676 46.3152 152.107C45.2415 152.225 44.1607 152.285 43.0799 152.285ZM25.1573 61.9892C22.531 67.297 20.2533 73.044 18.3311 79.232C9.16733 108.669 19.9857 125.384 30.6738 134.224C34.8526 137.681 40.0136 139.364 44.8437 138.821C47.5756 138.517 55.8874 137.593 59.9606 123.384C62.9002 113.134 61.573 101.874 56.2289 91.6768C48.5331 76.9935 36.3101 67.6868 25.1573 61.9892ZM72.9335 98.0006L79.8829 98.2175C100.492 98.6568 115.904 92.46 125.804 79.9164C134.028 69.4949 136.848 55.1979 133.345 41.6718C127.93 20.753 107.547 13.5771 90.916 15.7398C65.1392 19.109 45.3964 30.7299 31.9201 50.3946C44.9106 57.1136 58.915 68.059 68.0365 85.4605C70.1664 89.5229 71.8034 93.73 72.9335 98.0006Z" fill="url(#paint0_linear_223_9325)"/>
<defs>
<linearGradient id="paint0_linear_223_9325" x1="145.19" y1="16.7018" x2="-6.77621" y2="29.528" gradientUnits="userSpaceOnUse">
<stop offset="0.0255442" stop-color="#AFFBCE"/>
<stop offset="0.48516" stop-color="#7950EC"/>
</linearGradient>
</defs>
</svg>
